<svg width="116" height="42" viewBox="0 0 116 42" fill="none" xmlns="http://www.w3.org/2000/svg">
<g clip-path="url(#clip0_6_91)">
<path d="M11.102 15.128C8.13905 18.5086 6.30233 22.8651 6.10727 27.3806C3.21888 25.1068 1.73293 21.7729 2.37028 18.103C3.59769 11.026 10.1925 7.13741 13.9904 1.58441C14.3394 1.07453 14.6442 0.526235 14.9696 0C17.3414 4.35001 18.705 9.42319 18.8281 14.3838C18.9188 18.0573 18.256 21.8489 15.6532 24.6096C13.6342 26.7516 10.8861 27.918 8.02214 28.3189C7.96224 29.758 8.17709 31.2308 8.52713 32.6258C8.59961 32.9134 8.96687 33.7051 8.77825 33.9103C8.31228 34.4191 8.07641 33.3345 7.99388 33.0589C6.59505 28.382 7.59062 22.6178 9.51994 18.2384L11.102 15.128Z" fill="#88C980"/>
<path d="M27.4074 26.6572C27.4092 26.6647 27.4092 26.6709 27.4082 26.6785C27.7255 30.5805 26.3593 34.4326 23.4499 37.4352C20.9141 40.0534 17.8415 41.3661 14.749 41.6286C8.48241 42.1651 2.1341 38.3926 0 32.4336C3.87859 35.2684 6.73614 35.522 8.6292 35.23C13.7046 34.4482 15.7763 29.1435 20.5307 29.7715C22.508 30.0323 23.7946 31.1676 25.2995 30.3958C26.6621 29.6965 27.1807 27.959 27.4074 26.6572Z" fill="#88C980"/>
<path d="M37.0219 19.1297H43.7429V22.0728H37.0219V19.1297ZM33.2903 26.3935H44.7673V29.4949H33.2939L33.2903 26.3935ZM33.2939 11.9988H44.7673V15.1002H33.2903L33.2939 11.9988Z" fill="#88C980"/>
<path d="M84.8023 19.1297H91.5226V22.0728H84.8023V19.1297ZM81.0706 26.3935H92.5476V29.4949H81.0742L81.0706 26.3935ZM81.0742 11.9988H92.5476V15.1002H81.0706L81.0742 11.9988Z" fill="#88C980"/>
<path d="M62.5144 29.4949H58.9705L53.3774 21.0647C52.6946 20.0047 51.8026 18.4935 51.3819 17.8043L51.2251 17.8837C51.3302 18.2813 51.3557 19.6332 51.3557 21.0383L51.3819 29.4949H47.7855V11.9986H51.0935L56.9486 20.8535C57.8407 22.2055 58.6286 23.6363 58.9177 24.1664L59.0745 24.0867C58.9967 23.6097 58.9177 22.2841 58.9177 20.826L58.8916 11.9986H62.5144V29.4949Z" fill="#88C980"/>
<path d="M69.9167 15.1005H64.639V11.9991H78.9222V15.1005H73.6445V29.4944H69.9167V15.1005Z" fill="#88C980"/>
<path d="M99.2932 20.853H100.947C103.18 20.853 104.702 19.8194 104.702 17.9364C104.702 15.9757 103.442 14.9679 101.236 14.9679H99.2932H95.565V11.9991H101.447C105.963 11.9991 108.378 13.8015 108.378 17.911C108.378 20.3496 107.091 21.9927 104.886 22.8412C106.75 23.7164 106.802 26.6584 108.982 26.6584C109.27 26.6584 109.507 26.6052 109.507 26.6052L109.743 29.4944C109.743 29.4944 109.06 29.6801 107.827 29.6801C102.549 29.6801 103.993 23.5039 100.081 23.5039H99.2932V29.4944H95.565V20.853H99.2932Z" fill="#88C980"/>
<path d="M111.999 11.9988H115.648V29.4949H111.999V11.9988Z" fill="#88C980"/>
</g>
<defs>
<clipPath id="clip0_6_91">
<rect width="116" height="42" fill="white"/>
</clipPath>
</defs>
</svg>
