<svg width="179" height="65" viewBox="0 0 179 65" fill="none" xmlns="http://www.w3.org/2000/svg">
<g clip-path="url(#clip0_6_76)">
<path d="M17.1315 23.4124C12.5594 28.6442 9.72513 35.3864 9.42413 42.3748C4.96705 38.8557 2.67407 33.6961 3.65758 28.0165C5.5516 17.0641 15.728 11.046 21.5886 2.45207C22.1271 1.66296 22.5975 0.814412 23.0996 0C26.7595 6.73216 28.8637 14.5835 29.0536 22.2607C29.1937 27.9459 28.1709 33.8138 24.1545 38.0862C21.039 41.4013 16.7984 43.2065 12.379 43.8269C12.2865 46.054 12.6181 48.3335 13.1582 50.4923C13.2701 50.9374 13.8368 52.1626 13.5457 52.4802C12.8267 53.2677 12.4627 51.5891 12.3354 51.1626C10.1768 43.9245 11.7131 35.0037 14.6902 28.2261L17.1315 23.4124Z" fill="white"/>
<path d="M42.2925 41.2551C42.2952 41.2667 42.2952 41.2764 42.2937 41.2881C42.7834 47.327 40.6752 53.2886 36.1857 57.9353C32.2726 61.9873 27.5313 64.0189 22.7593 64.4252C13.0892 65.2554 3.29313 59.4171 0 50.1948C5.98507 54.5821 10.3946 54.9745 13.3158 54.5226C21.1476 53.3126 24.3444 45.103 31.6809 46.0749C34.7322 46.4785 36.7175 48.2355 39.0398 47.0411C41.1424 45.9589 41.9426 43.2698 42.2925 41.2551Z" fill="white"/>
<path d="M57.1286 29.6055H67.4998V34.1603H57.1286V29.6055ZM51.3704 40.847H69.0805V45.6468H51.3759L51.3704 40.847ZM51.3759 18.5696H69.0805V23.3693H51.3704L51.3759 18.5696Z" fill="white"/>
<path d="M130.859 29.6055H141.229V34.1603H130.859V29.6055ZM125.1 40.847H142.81V45.6468H125.106L125.1 40.847ZM125.106 18.5696H142.81V23.3693H125.1L125.106 18.5696Z" fill="white"/>
<path d="M96.4662 45.6468H90.9975L82.3669 32.6001C81.3132 30.9596 79.9367 28.6208 79.2876 27.5541L79.0456 27.6771C79.2078 28.2923 79.2471 30.3846 79.2471 32.5591L79.2876 45.6468H73.7379V18.5691H78.8426L87.8776 32.2731C89.2542 34.3655 90.4701 36.5798 90.9162 37.4002L91.1581 37.277C91.038 36.5388 90.9162 34.4872 90.9162 32.2306L90.8758 18.5691H96.4662V45.6468Z" fill="white"/>
<path d="M107.889 23.3698H99.7446V18.5701H121.785V23.3698H113.641V45.646H107.889V23.3698Z" fill="white"/>
<path d="M153.22 32.2725H155.771C159.217 32.2725 161.566 30.673 161.566 27.7587C161.566 24.7244 159.622 23.1646 156.218 23.1646H153.22H147.467V18.5701H156.543C163.512 18.5701 167.238 21.3594 167.238 27.7194C167.238 31.4935 165.253 34.0363 161.85 35.3495C164.726 36.704 164.807 41.2571 168.17 41.2571C168.615 41.2571 168.98 41.1748 168.98 41.1748L169.345 45.646C169.345 45.646 168.291 45.9336 166.388 45.9336C158.244 45.9336 160.472 36.3751 154.436 36.3751H153.22V45.646H147.467V32.2725H153.22Z" fill="white"/>
<path d="M172.826 18.5696H178.458V45.6468H172.826V18.5696Z" fill="white"/>
</g>
<defs>
<clipPath id="clip0_6_76">
<rect width="179" height="65" fill="white"/>
</clipPath>
</defs>
</svg>
