<svg width="165" height="60" viewBox="0 0 165 60" fill="none" xmlns="http://www.w3.org/2000/svg">
<path d="M15.7916 21.6114C11.5771 26.4408 8.96452 32.6644 8.68706 39.1152C4.57858 35.8668 2.46494 31.1041 3.37152 25.8614C5.11741 15.7515 14.4979 10.1963 19.9001 2.26345C20.3965 1.53504 20.8301 0.751765 21.2929 0C24.6666 6.2143 26.6062 13.4617 26.7813 20.5483C26.9104 25.7962 25.9676 31.2127 22.2653 35.1565C19.3935 38.2166 15.4846 39.8829 11.4108 40.4556C11.3256 42.5114 11.6312 44.6155 12.1291 46.6083C12.2322 47.0191 12.7546 48.1501 12.4863 48.4433C11.8235 49.1702 11.488 47.6207 11.3706 47.227C9.38089 40.5457 10.797 32.3111 13.5413 26.0549L15.7916 21.6114Z" fill="#2E7D32"/>
<path d="M38.9847 38.0817C38.9872 38.0924 38.9872 38.1013 38.9858 38.1121C39.4372 43.6865 37.4939 49.1895 33.3555 53.4788C29.7485 57.2191 25.378 59.0944 20.9792 59.4695C12.0655 60.2358 3.03557 54.8466 0 46.3337C5.51696 50.3835 9.58158 50.7457 12.2743 50.3286C19.4936 49.2117 22.4404 41.6336 29.2031 42.5307C32.0157 42.9033 33.8457 44.5251 35.9864 43.4226C37.9246 42.4236 38.6622 39.9414 38.9847 38.0817Z" fill="#2E7D32"/>
<path d="M52.6605 27.3282H62.2205V31.5326H52.6605V27.3282ZM47.3526 37.705H63.6776V42.1356H47.3577L47.3526 37.705ZM47.3577 17.1412H63.6776V21.5717H47.3526L47.3577 17.1412Z" fill="#2E7D32"/>
<path d="M120.624 27.3282H130.183V31.5326H120.624V27.3282ZM115.316 37.705H131.641V42.1356H115.321L115.316 37.705ZM115.321 17.1412H131.641V21.5717H115.316L115.321 17.1412Z" fill="#2E7D32"/>
<path d="M88.9214 42.1356H83.8804L75.9248 30.0925C74.9535 28.5782 73.6847 26.4193 73.0863 25.4347L72.8633 25.5482C73.0128 26.1161 73.049 28.0474 73.049 30.0547L73.0863 42.1356H67.9707V17.1408H72.6761L81.0045 29.7907C82.2734 31.7221 83.3942 33.7661 83.8054 34.5234L84.0284 34.4096C83.9177 33.7282 83.8054 31.8344 83.8054 29.7514L83.7682 17.1408H88.9214V42.1356Z" fill="#2E7D32"/>
<path d="M99.4505 21.5721H91.9434V17.1416H112.26V21.5721H104.753V42.1348H99.4505V21.5721Z" fill="#2E7D32"/>
<path d="M141.236 29.79H143.588C146.764 29.79 148.93 28.3135 148.93 25.6234C148.93 22.8225 147.138 21.3827 144 21.3827H141.236H135.933V17.1416H144.299C150.723 17.1416 154.158 19.7164 154.158 25.5871C154.158 29.0709 152.328 31.4181 149.191 32.6303C151.842 33.8806 151.917 38.0835 155.017 38.0835C155.427 38.0835 155.764 38.0075 155.764 38.0075L156.1 42.1348C156.1 42.1348 155.129 42.4002 153.374 42.4002C145.867 42.4002 147.921 33.577 142.357 33.577H141.236V42.1348H135.933V29.79H141.236Z" fill="#2E7D32"/>
<path d="M159.309 17.1412H164.5V42.1356H159.309V17.1412Z" fill="#2E7D32"/>
</svg>
